<mxfile host="app.diagrams.net" agent="Mozilla/5.0 (Windows NT 10.0; Win64; x64) AppleWebKit/537.36 (KHTML, like Gecko) Chrome/136.0.0.0 Safari/537.36" version="27.0.3">
  <diagram name="Page-1" id="5ARmTfj_-jgxVq5pLh_0">
    <mxGraphModel dx="1733" dy="458" grid="1" gridSize="10" guides="1" tooltips="1" connect="1" arrows="1" fold="1" page="1" pageScale="1" pageWidth="827" pageHeight="1169" math="0" shadow="0">
      <root>
        <mxCell id="0" />
        <mxCell id="1" parent="0" />
        <mxCell id="JYY2_VQhhH9ycfmXDzIQ-1" value="User" style="shape=umlActor;verticalLabelPosition=bottom;verticalAlign=top;html=1;outlineConnect=0;" vertex="1" parent="1">
          <mxGeometry x="-30" y="40" width="30" height="50" as="geometry" />
        </mxCell>
        <mxCell id="JYY2_VQhhH9ycfmXDzIQ-2" value="" style="endArrow=none;dashed=1;html=1;strokeWidth=2;rounded=0;" edge="1" parent="1">
          <mxGeometry width="50" height="50" relative="1" as="geometry">
            <mxPoint x="-13" y="1170" as="sourcePoint" />
            <mxPoint x="-13" y="110" as="targetPoint" />
          </mxGeometry>
        </mxCell>
        <mxCell id="JYY2_VQhhH9ycfmXDzIQ-6" value="" style="rounded=0;whiteSpace=wrap;html=1;fillColor=#dae8fc;strokeColor=#6c8ebf;gradientColor=#7ea6e0;" vertex="1" parent="1">
          <mxGeometry x="295" y="60" width="40" height="40" as="geometry" />
        </mxCell>
        <mxCell id="JYY2_VQhhH9ycfmXDzIQ-9" value="&lt;font&gt;UI&lt;/font&gt;" style="text;html=1;align=center;verticalAlign=middle;whiteSpace=wrap;rounded=0;fontSize=17;fontColor=light-dark(#000000,#000000);fontStyle=1" vertex="1" parent="1">
          <mxGeometry x="285" y="65" width="60" height="30" as="geometry" />
        </mxCell>
        <mxCell id="JYY2_VQhhH9ycfmXDzIQ-10" value="" style="rounded=0;whiteSpace=wrap;html=1;fillColor=#dae8fc;strokeColor=#6c8ebf;gradientColor=#7ea6e0;" vertex="1" parent="1">
          <mxGeometry x="556" y="60" width="164" height="40" as="geometry" />
        </mxCell>
        <mxCell id="JYY2_VQhhH9ycfmXDzIQ-11" value="&lt;font&gt;ExpenseManager&lt;/font&gt;" style="text;html=1;align=center;verticalAlign=middle;whiteSpace=wrap;rounded=0;fontSize=17;fontColor=light-dark(#000000,#000000);fontStyle=1" vertex="1" parent="1">
          <mxGeometry x="570" y="65" width="136" height="30" as="geometry" />
        </mxCell>
        <mxCell id="JYY2_VQhhH9ycfmXDzIQ-14" value="" style="rounded=0;whiteSpace=wrap;html=1;fillColor=#dae8fc;strokeColor=#6c8ebf;gradientColor=#7ea6e0;" vertex="1" parent="1">
          <mxGeometry x="905" y="60" width="144" height="40" as="geometry" />
        </mxCell>
        <mxCell id="JYY2_VQhhH9ycfmXDzIQ-15" value="&lt;font&gt;DataStorage&lt;/font&gt;" style="text;html=1;align=center;verticalAlign=middle;whiteSpace=wrap;rounded=0;fontSize=17;fontColor=light-dark(#000000,#000000);fontStyle=1" vertex="1" parent="1">
          <mxGeometry x="910" y="65" width="136" height="30" as="geometry" />
        </mxCell>
        <mxCell id="JYY2_VQhhH9ycfmXDzIQ-16" value="" style="rounded=0;whiteSpace=wrap;html=1;fillColor=#dae8fc;strokeColor=#6c8ebf;gradientColor=#7ea6e0;" vertex="1" parent="1">
          <mxGeometry x="1205" y="60" width="144" height="40" as="geometry" />
        </mxCell>
        <mxCell id="JYY2_VQhhH9ycfmXDzIQ-17" value="&lt;font&gt;Budget&lt;/font&gt;" style="text;html=1;align=center;verticalAlign=middle;whiteSpace=wrap;rounded=0;fontSize=17;fontColor=light-dark(#000000,#000000);fontStyle=1" vertex="1" parent="1">
          <mxGeometry x="1210" y="65" width="136" height="30" as="geometry" />
        </mxCell>
        <mxCell id="JYY2_VQhhH9ycfmXDzIQ-18" value="" style="rounded=0;whiteSpace=wrap;html=1;fillColor=#dae8fc;strokeColor=#6c8ebf;gradientColor=#7ea6e0;" vertex="1" parent="1">
          <mxGeometry x="1405" y="61" width="144" height="40" as="geometry" />
        </mxCell>
        <mxCell id="JYY2_VQhhH9ycfmXDzIQ-19" value="Notification" style="text;html=1;align=center;verticalAlign=middle;whiteSpace=wrap;rounded=0;fontSize=17;fontColor=light-dark(#000000,#000000);fontStyle=1" vertex="1" parent="1">
          <mxGeometry x="1410" y="66" width="136" height="30" as="geometry" />
        </mxCell>
        <mxCell id="JYY2_VQhhH9ycfmXDzIQ-20" value="" style="rounded=0;whiteSpace=wrap;html=1;fillColor=#dae8fc;strokeColor=#6c8ebf;gradientColor=#7ea6e0;" vertex="1" parent="1">
          <mxGeometry x="1656" y="64" width="144" height="40" as="geometry" />
        </mxCell>
        <mxCell id="JYY2_VQhhH9ycfmXDzIQ-21" value="Report" style="text;html=1;align=center;verticalAlign=middle;whiteSpace=wrap;rounded=0;fontSize=17;fontColor=light-dark(#000000,#000000);fontStyle=1" vertex="1" parent="1">
          <mxGeometry x="1660" y="68" width="136" height="30" as="geometry" />
        </mxCell>
        <mxCell id="JYY2_VQhhH9ycfmXDzIQ-22" value="" style="endArrow=none;dashed=1;html=1;strokeWidth=2;rounded=0;" edge="1" parent="1">
          <mxGeometry width="50" height="50" relative="1" as="geometry">
            <mxPoint x="320" y="1170" as="sourcePoint" />
            <mxPoint x="317" y="110" as="targetPoint" />
          </mxGeometry>
        </mxCell>
        <mxCell id="JYY2_VQhhH9ycfmXDzIQ-23" value="" style="endArrow=none;dashed=1;html=1;strokeWidth=2;rounded=0;" edge="1" parent="1">
          <mxGeometry width="50" height="50" relative="1" as="geometry">
            <mxPoint x="647" y="1170" as="sourcePoint" />
            <mxPoint x="647" y="100" as="targetPoint" />
          </mxGeometry>
        </mxCell>
        <mxCell id="JYY2_VQhhH9ycfmXDzIQ-24" value="" style="endArrow=none;dashed=1;html=1;strokeWidth=2;rounded=0;" edge="1" parent="1">
          <mxGeometry width="50" height="50" relative="1" as="geometry">
            <mxPoint x="977" y="1170" as="sourcePoint" />
            <mxPoint x="977" y="100" as="targetPoint" />
          </mxGeometry>
        </mxCell>
        <mxCell id="JYY2_VQhhH9ycfmXDzIQ-25" value="" style="endArrow=none;dashed=1;html=1;strokeWidth=2;rounded=0;" edge="1" parent="1">
          <mxGeometry width="50" height="50" relative="1" as="geometry">
            <mxPoint x="1277" y="1170" as="sourcePoint" />
            <mxPoint x="1277" y="100" as="targetPoint" />
          </mxGeometry>
        </mxCell>
        <mxCell id="JYY2_VQhhH9ycfmXDzIQ-26" value="" style="endArrow=none;dashed=1;html=1;strokeWidth=2;rounded=0;" edge="1" parent="1">
          <mxGeometry width="50" height="50" relative="1" as="geometry">
            <mxPoint x="1487" y="1167" as="sourcePoint" />
            <mxPoint x="1487" y="107" as="targetPoint" />
          </mxGeometry>
        </mxCell>
        <mxCell id="JYY2_VQhhH9ycfmXDzIQ-27" value="" style="endArrow=classic;html=1;rounded=0;" edge="1" parent="1">
          <mxGeometry width="50" height="50" relative="1" as="geometry">
            <mxPoint x="-10" y="200" as="sourcePoint" />
            <mxPoint x="310" y="200" as="targetPoint" />
          </mxGeometry>
        </mxCell>
        <mxCell id="JYY2_VQhhH9ycfmXDzIQ-28" value="" style="endArrow=none;dashed=1;html=1;strokeWidth=2;rounded=0;" edge="1" parent="1">
          <mxGeometry width="50" height="50" relative="1" as="geometry">
            <mxPoint x="1727" y="1170" as="sourcePoint" />
            <mxPoint x="1727" y="110" as="targetPoint" />
          </mxGeometry>
        </mxCell>
        <mxCell id="JYY2_VQhhH9ycfmXDzIQ-29" value="Enter Expense Details(amount, date, category)" style="text;html=1;align=center;verticalAlign=middle;whiteSpace=wrap;rounded=0;fontSize=14;fontStyle=1" vertex="1" parent="1">
          <mxGeometry x="-10" y="160" width="330" height="30" as="geometry" />
        </mxCell>
        <mxCell id="JYY2_VQhhH9ycfmXDzIQ-30" value="" style="endArrow=classic;html=1;rounded=0;" edge="1" parent="1">
          <mxGeometry width="50" height="50" relative="1" as="geometry">
            <mxPoint x="320" y="270" as="sourcePoint" />
            <mxPoint x="640" y="270" as="targetPoint" />
          </mxGeometry>
        </mxCell>
        <mxCell id="JYY2_VQhhH9ycfmXDzIQ-31" value="addExpense(amount, date, category)" style="text;html=1;align=center;verticalAlign=middle;whiteSpace=wrap;rounded=0;fontSize=14;fontStyle=1" vertex="1" parent="1">
          <mxGeometry x="330" y="230" width="290" height="30" as="geometry" />
        </mxCell>
        <mxCell id="JYY2_VQhhH9ycfmXDzIQ-32" value="" style="endArrow=classic;html=1;rounded=0;" edge="1" parent="1">
          <mxGeometry width="50" height="50" relative="1" as="geometry">
            <mxPoint x="650" y="310" as="sourcePoint" />
            <mxPoint x="970" y="310" as="targetPoint" />
          </mxGeometry>
        </mxCell>
        <mxCell id="JYY2_VQhhH9ycfmXDzIQ-33" value="SaveExpense(amount, date, category)" style="text;html=1;align=center;verticalAlign=middle;whiteSpace=wrap;rounded=0;fontSize=14;fontStyle=1" vertex="1" parent="1">
          <mxGeometry x="660" y="270" width="290" height="30" as="geometry" />
        </mxCell>
        <mxCell id="JYY2_VQhhH9ycfmXDzIQ-34" value="" style="endArrow=classic;html=1;rounded=0;dashed=1;" edge="1" parent="1">
          <mxGeometry width="50" height="50" relative="1" as="geometry">
            <mxPoint x="970" y="358" as="sourcePoint" />
            <mxPoint x="650" y="358" as="targetPoint" />
          </mxGeometry>
        </mxCell>
        <mxCell id="JYY2_VQhhH9ycfmXDzIQ-35" value="Expense Saved" style="text;html=1;align=center;verticalAlign=middle;whiteSpace=wrap;rounded=0;fontSize=14;fontStyle=1" vertex="1" parent="1">
          <mxGeometry x="668" y="328" width="152" height="30" as="geometry" />
        </mxCell>
        <mxCell id="JYY2_VQhhH9ycfmXDzIQ-36" value="" style="endArrow=classic;html=1;rounded=0;dashed=1;" edge="1" parent="1">
          <mxGeometry width="50" height="50" relative="1" as="geometry">
            <mxPoint x="640" y="319" as="sourcePoint" />
            <mxPoint x="320" y="319" as="targetPoint" />
          </mxGeometry>
        </mxCell>
        <mxCell id="JYY2_VQhhH9ycfmXDzIQ-37" value="Success Message" style="text;html=1;align=center;verticalAlign=middle;whiteSpace=wrap;rounded=0;fontSize=14;fontStyle=1" vertex="1" parent="1">
          <mxGeometry x="338" y="289" width="152" height="30" as="geometry" />
        </mxCell>
        <mxCell id="JYY2_VQhhH9ycfmXDzIQ-38" value="" style="endArrow=classic;html=1;rounded=0;dashed=1;" edge="1" parent="1">
          <mxGeometry width="50" height="50" relative="1" as="geometry">
            <mxPoint x="312" y="249" as="sourcePoint" />
            <mxPoint x="-8" y="249" as="targetPoint" />
          </mxGeometry>
        </mxCell>
        <mxCell id="JYY2_VQhhH9ycfmXDzIQ-39" value="Show Confirmation" style="text;html=1;align=center;verticalAlign=middle;whiteSpace=wrap;rounded=0;fontSize=14;fontStyle=1" vertex="1" parent="1">
          <mxGeometry x="10" y="219" width="152" height="30" as="geometry" />
        </mxCell>
        <mxCell id="JYY2_VQhhH9ycfmXDzIQ-40" value="" style="endArrow=classic;html=1;rounded=0;" edge="1" parent="1">
          <mxGeometry width="50" height="50" relative="1" as="geometry">
            <mxPoint x="-10" y="480" as="sourcePoint" />
            <mxPoint x="310" y="480" as="targetPoint" />
          </mxGeometry>
        </mxCell>
        <mxCell id="JYY2_VQhhH9ycfmXDzIQ-41" value="Set Budget(total, timeframe)" style="text;html=1;align=center;verticalAlign=middle;whiteSpace=wrap;rounded=0;fontSize=14;fontStyle=1" vertex="1" parent="1">
          <mxGeometry y="440" width="290" height="30" as="geometry" />
        </mxCell>
        <mxCell id="JYY2_VQhhH9ycfmXDzIQ-42" value="" style="endArrow=classic;html=1;rounded=0;" edge="1" parent="1">
          <mxGeometry width="50" height="50" relative="1" as="geometry">
            <mxPoint x="320" y="510" as="sourcePoint" />
            <mxPoint x="1260" y="510" as="targetPoint" />
          </mxGeometry>
        </mxCell>
        <mxCell id="JYY2_VQhhH9ycfmXDzIQ-43" value="setBudget(total, timeframe)" style="text;html=1;align=center;verticalAlign=middle;whiteSpace=wrap;rounded=0;fontSize=14;fontStyle=1" vertex="1" parent="1">
          <mxGeometry x="330" y="470" width="290" height="30" as="geometry" />
        </mxCell>
        <mxCell id="JYY2_VQhhH9ycfmXDzIQ-44" value="" style="endArrow=classic;html=1;rounded=0;" edge="1" parent="1">
          <mxGeometry width="50" height="50" relative="1" as="geometry">
            <mxPoint x="1270" y="568" as="sourcePoint" />
            <mxPoint x="980" y="568" as="targetPoint" />
          </mxGeometry>
        </mxCell>
        <mxCell id="JYY2_VQhhH9ycfmXDzIQ-45" value="saveBudget(budget)" style="text;html=1;align=center;verticalAlign=middle;whiteSpace=wrap;rounded=0;fontSize=14;fontStyle=1" vertex="1" parent="1">
          <mxGeometry x="990" y="530" width="152" height="30" as="geometry" />
        </mxCell>
        <mxCell id="JYY2_VQhhH9ycfmXDzIQ-46" value="" style="endArrow=classic;html=1;rounded=0;dashed=1;" edge="1" parent="1">
          <mxGeometry width="50" height="50" relative="1" as="geometry">
            <mxPoint x="980" y="622" as="sourcePoint" />
            <mxPoint x="1270" y="622" as="targetPoint" />
          </mxGeometry>
        </mxCell>
        <mxCell id="JYY2_VQhhH9ycfmXDzIQ-47" value="Budget Saved" style="text;html=1;align=center;verticalAlign=middle;whiteSpace=wrap;rounded=0;fontSize=14;fontStyle=1" vertex="1" parent="1">
          <mxGeometry x="968" y="588" width="152" height="30" as="geometry" />
        </mxCell>
        <mxCell id="JYY2_VQhhH9ycfmXDzIQ-48" value="" style="endArrow=classic;html=1;rounded=0;" edge="1" parent="1">
          <mxGeometry width="50" height="50" relative="1" as="geometry">
            <mxPoint x="1290" y="660" as="sourcePoint" />
            <mxPoint x="1450" y="660" as="targetPoint" />
          </mxGeometry>
        </mxCell>
        <mxCell id="JYY2_VQhhH9ycfmXDzIQ-49" value="checkBudgetStatus()" style="text;html=1;align=center;verticalAlign=middle;whiteSpace=wrap;rounded=0;fontSize=14;fontStyle=1" vertex="1" parent="1">
          <mxGeometry x="1220" y="618" width="290" height="30" as="geometry" />
        </mxCell>
        <mxCell id="JYY2_VQhhH9ycfmXDzIQ-50" value="" style="endArrow=classic;html=1;rounded=0;dashed=1;" edge="1" parent="1">
          <mxGeometry width="50" height="50" relative="1" as="geometry">
            <mxPoint x="1480" y="688" as="sourcePoint" />
            <mxPoint x="-10" y="688" as="targetPoint" />
          </mxGeometry>
        </mxCell>
        <mxCell id="JYY2_VQhhH9ycfmXDzIQ-51" value="Show Alert if Exceeded" style="text;html=1;align=center;verticalAlign=middle;whiteSpace=wrap;rounded=0;fontSize=14;fontStyle=1" vertex="1" parent="1">
          <mxGeometry x="-2" y="658" width="232" height="30" as="geometry" />
        </mxCell>
        <mxCell id="JYY2_VQhhH9ycfmXDzIQ-52" value="" style="endArrow=classic;html=1;rounded=0;" edge="1" parent="1">
          <mxGeometry width="50" height="50" relative="1" as="geometry">
            <mxPoint y="740" as="sourcePoint" />
            <mxPoint x="320" y="740" as="targetPoint" />
          </mxGeometry>
        </mxCell>
        <mxCell id="JYY2_VQhhH9ycfmXDzIQ-53" value="Request Report(type, date range)" style="text;html=1;align=center;verticalAlign=middle;whiteSpace=wrap;rounded=0;fontSize=14;fontStyle=1" vertex="1" parent="1">
          <mxGeometry x="10" y="704" width="290" height="30" as="geometry" />
        </mxCell>
        <mxCell id="JYY2_VQhhH9ycfmXDzIQ-54" value="" style="endArrow=classic;html=1;rounded=0;" edge="1" parent="1">
          <mxGeometry width="50" height="50" relative="1" as="geometry">
            <mxPoint x="321" y="770" as="sourcePoint" />
            <mxPoint x="1720" y="770" as="targetPoint" />
          </mxGeometry>
        </mxCell>
        <mxCell id="JYY2_VQhhH9ycfmXDzIQ-55" value="generateReport(type, start date, end date)" style="text;html=1;align=center;verticalAlign=middle;whiteSpace=wrap;rounded=0;fontSize=14;fontStyle=1" vertex="1" parent="1">
          <mxGeometry x="331" y="734" width="290" height="30" as="geometry" />
        </mxCell>
        <mxCell id="JYY2_VQhhH9ycfmXDzIQ-56" value="" style="endArrow=classic;html=1;rounded=0;" edge="1" parent="1">
          <mxGeometry width="50" height="50" relative="1" as="geometry">
            <mxPoint x="1710" y="840" as="sourcePoint" />
            <mxPoint x="660" y="840" as="targetPoint" />
          </mxGeometry>
        </mxCell>
        <mxCell id="JYY2_VQhhH9ycfmXDzIQ-57" value="getExpenses(dateRange)" style="text;html=1;align=center;verticalAlign=middle;whiteSpace=wrap;rounded=0;fontSize=14;fontStyle=1" vertex="1" parent="1">
          <mxGeometry x="670" y="800" width="220" height="30" as="geometry" />
        </mxCell>
        <mxCell id="JYY2_VQhhH9ycfmXDzIQ-58" value="" style="endArrow=classic;html=1;rounded=0;" edge="1" parent="1">
          <mxGeometry width="50" height="50" relative="1" as="geometry">
            <mxPoint x="650" y="890" as="sourcePoint" />
            <mxPoint x="970" y="890" as="targetPoint" />
          </mxGeometry>
        </mxCell>
        <mxCell id="JYY2_VQhhH9ycfmXDzIQ-59" value="loadExpenses()" style="text;html=1;align=center;verticalAlign=middle;whiteSpace=wrap;rounded=0;fontSize=14;fontStyle=1" vertex="1" parent="1">
          <mxGeometry x="634" y="850" width="220" height="30" as="geometry" />
        </mxCell>
        <mxCell id="JYY2_VQhhH9ycfmXDzIQ-60" value="" style="endArrow=classic;html=1;rounded=0;dashed=1;" edge="1" parent="1">
          <mxGeometry width="50" height="50" relative="1" as="geometry">
            <mxPoint x="970" y="928" as="sourcePoint" />
            <mxPoint x="650" y="928" as="targetPoint" />
          </mxGeometry>
        </mxCell>
        <mxCell id="JYY2_VQhhH9ycfmXDzIQ-61" value="Expense List" style="text;html=1;align=center;verticalAlign=middle;whiteSpace=wrap;rounded=0;fontSize=14;fontStyle=1" vertex="1" parent="1">
          <mxGeometry x="668" y="898" width="152" height="30" as="geometry" />
        </mxCell>
        <mxCell id="JYY2_VQhhH9ycfmXDzIQ-62" value="" style="endArrow=classic;html=1;rounded=0;" edge="1" parent="1">
          <mxGeometry width="50" height="50" relative="1" as="geometry">
            <mxPoint x="1720" y="970" as="sourcePoint" />
            <mxPoint x="1290" y="968" as="targetPoint" />
          </mxGeometry>
        </mxCell>
        <mxCell id="JYY2_VQhhH9ycfmXDzIQ-63" value="getBudgetData()" style="text;html=1;align=center;verticalAlign=middle;whiteSpace=wrap;rounded=0;fontSize=14;fontStyle=1" vertex="1" parent="1">
          <mxGeometry x="1300" y="930" width="152" height="30" as="geometry" />
        </mxCell>
        <mxCell id="JYY2_VQhhH9ycfmXDzIQ-64" value="" style="endArrow=classic;html=1;rounded=0;dashed=1;" edge="1" parent="1">
          <mxGeometry width="50" height="50" relative="1" as="geometry">
            <mxPoint x="1290" y="1012" as="sourcePoint" />
            <mxPoint x="1710" y="1012" as="targetPoint" />
          </mxGeometry>
        </mxCell>
        <mxCell id="JYY2_VQhhH9ycfmXDzIQ-65" value="Budget Details" style="text;html=1;align=center;verticalAlign=middle;whiteSpace=wrap;rounded=0;fontSize=14;fontStyle=1" vertex="1" parent="1">
          <mxGeometry x="1278" y="978" width="152" height="30" as="geometry" />
        </mxCell>
        <mxCell id="JYY2_VQhhH9ycfmXDzIQ-66" value="" style="endArrow=classic;html=1;rounded=0;dashed=1;" edge="1" parent="1">
          <mxGeometry width="50" height="50" relative="1" as="geometry">
            <mxPoint x="1710" y="1058" as="sourcePoint" />
            <mxPoint x="650" y="1058" as="targetPoint" />
          </mxGeometry>
        </mxCell>
        <mxCell id="JYY2_VQhhH9ycfmXDzIQ-67" value="Display Report" style="text;html=1;align=center;verticalAlign=middle;whiteSpace=wrap;rounded=0;fontSize=14;fontStyle=1" vertex="1" parent="1">
          <mxGeometry x="668" y="1028" width="152" height="30" as="geometry" />
        </mxCell>
        <mxCell id="JYY2_VQhhH9ycfmXDzIQ-68" value="" style="endArrow=classic;html=1;rounded=0;dashed=1;entryX=0;entryY=1;entryDx=0;entryDy=0;" edge="1" parent="1" target="JYY2_VQhhH9ycfmXDzIQ-69">
          <mxGeometry width="50" height="50" relative="1" as="geometry">
            <mxPoint x="630" y="1068" as="sourcePoint" />
            <mxPoint x="-20" y="1068" as="targetPoint" />
          </mxGeometry>
        </mxCell>
        <mxCell id="JYY2_VQhhH9ycfmXDzIQ-69" value="show Report" style="text;html=1;align=center;verticalAlign=middle;whiteSpace=wrap;rounded=0;fontSize=14;fontStyle=1" vertex="1" parent="1">
          <mxGeometry x="-2" y="1038" width="152" height="30" as="geometry" />
        </mxCell>
      </root>
    </mxGraphModel>
  </diagram>
</mxfile>
